<?xml version="1.0" encoding="iso-8859-1"?>
<svg version="1.1" id="Layer_1" xmlns="http://www.w3.org/2000/svg" xmlns:xlink="http://www.w3.org/1999/xlink" x="0px" y="0px"
	 viewBox="0 0 426.667 426.667" style="enable-background:new 0 0 426.667 426.667;" xml:space="preserve">
<path style="fill:#a5cc00;" d="M213.342,0C126.763,0,56.478,70.293,56.478,156.817c0,36.151,13.15,68.48,32.495,95.633
	c124.369,174.217,124.369,174.217,124.369,174.217s0,0,124.382-174.238c19.332-27.145,32.465-59.554,32.465-95.612
	C370.193,70.293,300.006,0,213.342,0z"/>
<path style="fill:#FFFFFF;" d="M311.258,156.817c0,54.182-43.793,97.916-97.916,97.916c-54.046,0-97.929-43.733-97.929-97.916
	c0-54.042,43.883-97.899,97.929-97.899C267.469,58.918,311.258,102.775,311.258,156.817z"/>
</svg>
