<?xml version="1.0" encoding="UTF-8" standalone="no"?>
<svg
   xmlns:dc="http://purl.org/dc/elements/1.1/"
   xmlns:cc="http://creativecommons.org/ns#"
   xmlns:rdf="http://www.w3.org/1999/02/22-rdf-syntax-ns#"
   xmlns:svg="http://www.w3.org/2000/svg"
   xmlns="http://www.w3.org/2000/svg"
   height="24.000002"
   width="18"
   xml:space="preserve"
   viewBox="0 0 18.000001 24.000002"
   y="0px"
   x="0px"
   id="Layer_1"
   version="1.1"><metadata
     id="metadata3424"><rdf:RDF><cc:Work
         rdf:about=""><dc:format>image/svg+xml</dc:format><dc:type
           rdf:resource="http://purl.org/dc/dcmitype/StillImage" /><dc:title></dc:title></cc:Work></rdf:RDF></metadata><defs
     id="defs3422" /><path
     id="path3416"
     d="M 9.0004915,-9.5367437e-7 C 4.0327869,-9.5367437e-7 0,3.9539764 0,8.8209484 c 0,2.0334946 0.75451923,3.8519986 1.8644864,5.3793566 7.1360051,9.799698 7.1360051,9.799698 7.1360051,9.799698 0,0 0,0 7.1367455,-9.800883 1.109226,-1.5269 1.862765,-3.349912 1.862765,-5.3781716 C 18.000231,3.9539764 13.973068,-9.5367437e-7 9.0004915,-9.5367437e-7 Z"
     style="fill:#a5cc00" /><path
     id="path3418"
     d="m 14.618683,8.8209484 c 0,3.0477336 -2.51274,5.5077736 -5.6181915,5.5077736 -3.1010374,0 -5.6189419,-2.45998 -5.6189419,-5.5077736 0,-3.0398578 2.5179045,-5.5068129 5.6189419,-5.5068129 3.1056805,0 5.6181915,2.4669551 5.6181915,5.5068129 z"
     style="fill:#ffffff" /></svg>